<svg xmlns="http://www.w3.org/2000/svg" width="36px" height="36px">
<g>
	<path d="M 18 30 a 3 3 0 0 0 3 -3 c 0 -1.657 -1.5 0 -3 -17 c -1.5 17 -3 15.343 -3 17 a 3 3 0 0 0 3 3 Z"/>
	<path d="M 15.687 12.5 l 0.3 -0.164 a 1.5 1.5 0 0 0 0.75 -1.021 l 0.142 -0.712 a 0.75 0.75 0 0 1 0.736 -0.603 h 0.77 a 0.75 0.75 0 0 1 0.736 0.603 l 0.142 0.712 a 1.5 1.5 0 0 0 0.75 1.02 l 0.3 0.165 a 5.586 5.586 0 0 1 3.24 4.47 l 0.54 4.863 c 0.1 0.906 0.563 1.733 1.282 2.292 l 0.354 0.275 a 1.5 1.5 0 0 1 0.534 1.548 L 26.25 26 a 1.32 1.32 0 0 1 -1.28 1 H 11.03 a 1.32 1.32 0 0 1 -1.28 -1 l -0.013 -0.052 a 1.5 1.5 0 0 1 0.534 -1.548 l 0.354 -0.275 a 3.375 3.375 0 0 0 1.282 -2.292 l 0.54 -4.864 a 5.586 5.586 0 0 1 3.24 -4.469 Z"/>

</g>
</svg>